# xmcd
#
# Track frame offsets:
#	150
#	15554
#	40898
#	60032
#	78301
#	98036
#	115399
#	140094
#	162549
#	179826
#	200058
#	220771
#	232820
#	253718
#	281279
#
# Disc length: 3937 seconds
#
# Revision: 5
# Processed by: cddbd v1.5.2PL0 Copyright (c) Steve Scherf et al.
# Submitted via: audiograbber 1.83.01
#
DISCID=cf0f5f0f
DTITLE=Canal da Graça - Coragem!
DYEAR=2004
DGENRE=Blues
TTITLE0=Meu Senhor e Rei
TTITLE1=Medley: Adorar ao Senhor - Vem, Espírito de Deus
TTITLE2=Crer em Ti
TTITLE3=Coragem
TTITLE4=Entrega de Amor
TTITLE5=Nele Tudo Posso
TTITLE6=Meu Desejo
TTITLE7=Cruz Santa
TTITLE8=Sede Fiel
TTITLE9=Obra de Amor
TTITLE10=Em Louvor e Adoração
TTITLE11=Shalom - Tenha a Paz
TTITLE12=Agraciada
TTITLE13=Canal da Graça
TTITLE14=Faixa Interativa
EXTD=www.canaldagraca.com
EXTT0=
EXTT1=
EXTT2=
EXTT3=
EXTT4=
EXTT5=
EXTT6=
EXTT7=
EXTT8=
EXTT9=
EXTT10=
EXTT11=
EXTT12=
EXTT13=
EXTT14=
PLAYORDER=
